<svg id="visual" viewBox="0 0 1900 150" width="1900" height="150" xmlns="http://www.w3.org/2000/svg" xmlns:xlink="http://www.w3.org/1999/xlink" version="1.1"><path d="M0 31L63.3 49C126.7 67 253.3 103 380 109.2C506.7 115.3 633.3 91.7 760 75.2C886.7 58.7 1013.3 49.3 1140 39.2C1266.7 29 1393.3 18 1520 34.2C1646.7 50.3 1773.3 93.7 1836.7 115.3L1900 137L1900 0L1836.7 0C1773.3 0 1646.7 0 1520 0C1393.3 0 1266.7 0 1140 0C1013.3 0 886.7 0 760 0C633.3 0 506.7 0 380 0C253.3 0 126.7 0 63.3 0L0 0Z" fill="#061067" stroke-linecap="round" stroke-linejoin="miter"></path></svg>