<svg id="visual" viewBox="0 0 1900 150" width="1900" height="150" xmlns="http://www.w3.org/2000/svg" xmlns:xlink="http://www.w3.org/1999/xlink" version="1.1"><path d="M0 4L63.3 7.8C126.7 11.7 253.3 19.3 380 20.8C506.7 22.3 633.3 17.7 760 29.2C886.7 40.7 1013.3 68.3 1140 70.5C1266.7 72.7 1393.3 49.3 1520 34.7C1646.7 20 1773.3 14 1836.7 11L1900 8L1900 151L1836.7 151C1773.3 151 1646.7 151 1520 151C1393.3 151 1266.7 151 1140 151C1013.3 151 886.7 151 760 151C633.3 151 506.7 151 380 151C253.3 151 126.7 151 63.3 151L0 151Z" fill="#061067" stroke-linecap="round" stroke-linejoin="miter"></path></svg>