<svg id="visual" viewBox="0 0 1900 150" width="1900" height="150" xmlns="http://www.w3.org/2000/svg" xmlns:xlink="http://www.w3.org/1999/xlink" version="1.1"><path d="M0 139L63.3 134.3C126.7 129.7 253.3 120.3 380 108C506.7 95.7 633.3 80.3 760 77.8C886.7 75.3 1013.3 85.7 1140 78.2C1266.7 70.7 1393.3 45.3 1520 36.5C1646.7 27.7 1773.3 35.3 1836.7 39.2L1900 43L1900 151L1836.7 151C1773.3 151 1646.7 151 1520 151C1393.3 151 1266.7 151 1140 151C1013.3 151 886.7 151 760 151C633.3 151 506.7 151 380 151C253.3 151 126.7 151 63.3 151L0 151Z" fill="#e5e8ee" stroke-linecap="round" stroke-linejoin="miter"></path></svg>